<svg xmlns="http://www.w3.org/2000/svg" width="1200" height="900"><rect width="1200" height="900" x="0" y="0" fill="#31462a" id="background"/><g id="viz"><g transform="translate(0,0)"><g transform="translate(10,150)"><g><path fill="rgb(254, 241, 167)" d="M0,478.8627361365021C273.4146341463415,478.8627361365021,273.4146341463415,-39.707056730579026,546.829268292683,-39.707056730579026C863.4146341463415,-39.707056730579026,863.4146341463415,180.17971237237913,1180,180.17971237237913L1180,192.52135250850824C863.4146341463415,192.52135250850824,863.4146341463415,-26.239309481452068,546.829268292683,-26.239309481452068C273.4146341463415,-26.239309481452068,273.4146341463415,489.76157830591103,0,489.76157830591103Z"><title>65</title></path><path fill="rgb(253, 244, 172)" d="M0,281.20962827544173C273.4146341463415,281.20962827544173,273.4146341463415,579.5474731501614,546.829268292683,579.5474731501614C863.4146341463415,579.5474731501614,863.4146341463415,534.5498957075421,1180,534.5498957075421L1180,545.6894280382041C863.4146341463415,545.6894280382041,863.4146341463415,590.5140673387363,546.829268292683,590.5140673387363C273.4146341463415,590.5140673387363,273.4146341463415,292.6645338208409,0,292.6645338208409Z"><title>66</title></path><path fill="rgb(252, 247, 175)" d="M0,2.1561547836684696C273.4146341463415,2.1561547836684696,273.4146341463415,668.2453712854976,546.829268292683,668.2453712854976C863.4146341463415,668.2453712854976,863.4146341463415,401.6719727741796,1180,401.6719727741796L1180,413.1320671862995C863.4146341463415,413.1320671862995,863.4146341463415,678.1537853330698,546.829268292683,678.1537853330698C273.4146341463415,678.1537853330698,273.4146341463415,16.94744058500912,0,16.94744058500912Z"><title>67</title></path><path fill="rgb(250, 249, 176)" d="M0,440.05499695307736C273.4146341463415,440.05499695307736,273.4146341463415,327.02549911049636,546.829268292683,327.02549911049636C863.4146341463415,327.02549911049636,863.4146341463415,222.8840706993086,1180,222.8840706993086L1180,235.06542979470885C863.4146341463415,235.06542979470885,863.4146341463415,338.7616788561641,546.829268292683,338.7616788561641C273.4146341463415,338.7616788561641,273.4146341463415,451.0650517976843,0,451.0650517976843Z"><title>68</title></path><path fill="rgb(247, 250, 175)" d="M0,18.94744058500912C273.4146341463415,18.94744058500912,273.4146341463415,-121.99999999999984,546.829268292683,-121.99999999999984C863.4146341463415,-121.99999999999984,863.4146341463415,-121.99999999999952,1180,-121.99999999999952L1180,-106.9335821714783C863.4146341463415,-106.9335821714783,863.4146341463415,-106.60828885814044,546.829268292683,-106.60828885814044C273.4146341463415,-106.60828885814044,273.4146341463415,33.4050883607556,0,33.4050883607556Z"><title>69</title></path><path fill="rgb(243, 249, 172)" d="M0,35.4050883607556C273.4146341463415,35.4050883607556,273.4146341463415,680.1537853330698,546.829268292683,680.1537853330698C863.4146341463415,680.1537853330698,863.4146341463415,674.1961796025909,1180,674.1961796025909L1180,684.5343067296081C863.4146341463415,684.5343067296081,863.4146341463415,689.5812084074586,546.829268292683,689.5812084074586C273.4146341463415,689.5812084074586,273.4146341463415,49.58470444850698,0,49.58470444850698Z"><title>70</title></path><path fill="rgb(239, 248, 169)" d="M0,-15.135588056063426C273.4146341463415,-15.135588056063426,273.4146341463415,434.84667589115105,546.829268292683,434.84667589115105C863.4146341463415,434.84667589115105,863.4146341463415,599.1656603359315,1180,599.1656603359315L1180,609.9044900647712C863.4146341463415,609.9044900647712,863.4146341463415,446.19806285827246,546.829268292683,446.19806285827246C273.4146341463415,446.19806285827246,273.4146341463415,0.15615478366846958,0,0.15615478366846958Z"><title>71</title></path><path fill="rgb(234, 247, 165)" d="M0,387.90356489945157C273.4146341463415,387.90356489945157,273.4146341463415,605.3844633326745,546.829268292683,605.3844633326745C863.4146341463415,605.3844633326745,863.4146341463415,208.70271160390843,1180,208.70271160390843L1180,220.8840706993086C863.4146341463415,220.8840706993086,863.4146341463415,616.2067602292943,546.829268292683,616.2067602292943C273.4146341463415,616.2067602292943,273.4146341463415,399.02483241925654,0,399.02483241925654Z"><title>72</title></path><path fill="rgb(228, 244, 162)" d="M0,294.6645338208409C273.4146341463415,294.6645338208409,273.4146341463415,421.4952889240298,546.829268292683,421.4952889240298C863.4146341463415,421.4952889240298,863.4146341463415,122.0918871445825,1180,122.0918871445825L1180,134.67394884180504C863.4146341463415,134.67394884180504,863.4146341463415,432.84667589115105,546.829268292683,432.84667589115105C273.4146341463415,432.84667589115105,273.4146341463415,306.11943936624004,0,306.11943936624004Z"><title>73</title></path><path fill="rgb(222, 242, 160)" d="M0,308.11943936624004C273.4146341463415,308.11943936624004,273.4146341463415,243.0211504249853,546.829268292683,243.0211504249853C863.4146341463415,243.0211504249853,863.4146341463415,63.20265671314115,1180,63.20265671314115L1180,76.02513997145712C863.4146341463415,76.02513997145712,863.4146341463415,255.23832114383623,546.829268292683,255.23832114383623C273.4146341463415,255.23832114383623,273.4146341463415,319.5187385740402,0,319.5187385740402Z"><title>74</title></path><path fill="rgb(214, 238, 159)" d="M0,652.5513406459476C273.4146341463415,652.5513406459476,273.4146341463415,630.7885616393227,546.829268292683,630.7885616393227C863.4146341463415,630.7885616393227,863.4146341463415,649.3596443078275,1180,649.3596443078275L1180,659.7779119552092C863.4146341463415,659.7779119552092,863.4146341463415,641.370363049351,546.829268292683,641.370363049351C273.4146341463415,641.370363049351,273.4146341463415,662.449268738574,0,662.449268738574Z"><title>75</title></path><path fill="rgb(205, 235, 159)" d="M0,348.20612431444243C273.4146341463415,348.20612431444243,273.4146341463415,97.96349739737775,546.829268292683,97.96349739737775C863.4146341463415,97.96349739737775,863.4146341463415,48.38017345482521,1180,48.38017345482521L1180,61.20265671314115C863.4146341463415,61.20265671314115,863.4146341463415,110.85405547868501,546.829268292683,110.85405547868501C273.4146341463415,110.85405547868501,273.4146341463415,359.5498171846436,0,359.5498171846436Z"><title>76</title></path><path fill="rgb(196, 231, 159)" d="M0,361.5498171846436C273.4146341463415,361.5498171846436,273.4146341463415,185.76767477103533,546.829268292683,185.76767477103533C863.4146341463415,185.76767477103533,863.4146341463415,481.6712043034363,1180,481.6712043034363L1180,492.8908771544628C863.4146341463415,492.8908771544628,863.4146341463415,198.27344007379605,546.829268292683,198.27344007379605C273.4146341463415,198.27344007379605,273.4146341463415,372.7822973796466,0,372.7822973796466Z"><title>77</title></path><path fill="rgb(187, 227, 160)" d="M0,491.76157830591103C273.4146341463415,491.76157830591103,273.4146341463415,408.1439019569085,546.829268292683,408.1439019569085C863.4146341463415,408.1439019569085,863.4146341463415,468.4515314524099,1180,468.4515314524099L1180,479.6712043034363C863.4146341463415,479.6712043034363,863.4146341463415,419.4952889240298,546.829268292683,419.4952889240298C273.4146341463415,419.4952889240298,273.4146341463415,502.66042047531994,0,502.66042047531994Z"><title>78</title></path><path fill="rgb(177, 223, 161)" d="M0,504.66042047531994C273.4146341463415,504.66042047531994,273.4146341463415,592.5140673387363,546.829268292683,592.5140673387363C863.4146341463415,592.5140673387363,863.4146341463415,636.9413766604458,1180,636.9413766604458L1180,647.3596443078275C863.4146341463415,647.3596443078275,863.4146341463415,603.3844633326745,546.829268292683,603.3844633326745C273.4146341463415,603.3844633326745,273.4146341463415,515.3368372943328,0,515.3368372943328Z"><title>79</title></path><path fill="rgb(166, 219, 162)" d="M0,374.7822973796466C273.4146341463415,374.7822973796466,273.4146341463415,488.0117282730447,546.829268292683,488.0117282730447C863.4146341463415,488.0117282730447,863.4146341463415,455.23185860138346,1180,455.23185860138346L1180,466.4515314524099C863.4146341463415,466.4515314524099,863.4146341463415,499.17071885089285,546.829268292683,499.17071885089285C273.4146341463415,499.17071885089285,273.4146341463415,385.90356489945157,0,385.90356489945157Z"><title>80</title></path><path fill="rgb(156, 215, 163)" d="M0,567.5976538695917C273.4146341463415,567.5976538695917,273.4146341463415,618.2067602292943,546.829268292683,618.2067602292943C863.4146341463415,618.2067602292943,863.4146341463415,661.7779119552092,1180,661.7779119552092L1180,672.1961796025909C863.4146341463415,672.1961796025909,863.4146341463415,628.7885616393227,546.829268292683,628.7885616393227C273.4146341463415,628.7885616393227,273.4146341463415,578.0516453382083,0,578.0516453382083Z"><title>81</title></path><path fill="rgb(145, 210, 164)" d="M0,170.23400365630698C273.4146341463415,170.23400365630698,273.4146341463415,-87.69756868946419,546.829268292683,-87.69756868946419C863.4146341463415,-87.69756868946419,863.4146341463415,-104.9335821714783,1180,-104.9335821714783L1180,-90.74871006696624C863.4146341463415,-90.74871006696624,863.4146341463415,-73.36403768860762,546.829268292683,-73.36403768860762C273.4146341463415,-73.36403768860762,273.4146341463415,182.46739792809245,0,182.46739792809245Z"><title>82</title></path><path fill="rgb(134, 206, 165)" d="M0,427.0449421084704C273.4146341463415,427.0449421084704,273.4146341463415,271.3592936680505,546.829268292683,271.3592936680505C863.4146341463415,271.3592936680505,863.4146341463415,107.42968492699555,1180,107.42968492699555L1180,120.0918871445825C863.4146341463415,120.0918871445825,863.4146341463415,283.48026619226476,546.829268292683,283.48026619226476C273.4146341463415,283.48026619226476,273.4146341463415,438.05499695307736,0,438.05499695307736Z"><title>83</title></path><path fill="rgb(123, 200, 166)" d="M0,711.1512797074954C273.4146341463415,711.1512797074954,273.4146341463415,257.23832114383623,546.829268292683,257.23832114383623C863.4146341463415,257.23832114383623,863.4146341463415,361.0512679767265,1180,361.0512679767265L1180,372.67164342957534C863.4146341463415,372.67164342957534,863.4146341463415,269.3592936680505,546.829268292683,269.3592936680505C273.4146341463415,269.3592936680505,273.4146341463415,719.9370810481413,0,719.9370810481413Z"><title>84</title></path><path fill="rgb(113, 194, 167)" d="M0,198.47836684948186C273.4146341463415,198.47836684948186,273.4146341463415,171.26190946827458,546.829268292683,171.26190946827458C863.4146341463415,171.26190946827458,863.4146341463415,-11.590954001536502,1180,-11.590954001536502L1180,1.4719508178728233C863.4146341463415,1.4719508178728233,863.4146341463415,183.76767477103533,546.829268292683,183.76767477103533C273.4146341463415,183.76767477103533,273.4146341463415,210.48933577087126,0,210.48933577087126Z"><title>85</title></path><path fill="rgb(103, 187, 169)" d="M0,465.9638939670932C273.4146341463415,465.9638939670932,273.4146341463415,214.53870988996522,546.829268292683,214.53870988996522C863.4146341463415,214.53870988996522,863.4146341463415,251.08650784938004,1180,251.08650784938004L1180,263.10758590405123C863.4146341463415,263.10758590405123,863.4146341463415,226.80397970613444,546.829268292683,226.80397970613444C273.4146341463415,226.80397970613444,273.4146341463415,476.8627361365021,0,476.8627361365021Z"><title>86</title></path><path fill="rgb(93, 180, 172)" d="M0,453.0650517976843C273.4146341463415,453.0650517976843,273.4146341463415,228.80397970613444,546.829268292683,228.80397970613444C863.4146341463415,228.80397970613444,863.4146341463415,347.4308925238777,1180,347.4308925238777L1180,359.0512679767265C863.4146341463415,359.0512679767265,863.4146341463415,241.0211504249853,546.829268292683,241.0211504249853C273.4146341463415,241.0211504249853,273.4146341463415,463.9638939670932,0,463.9638939670932Z"><title>87</title></path><path fill="rgb(85, 172, 174)" d="M0,226.38909201706264C273.4146341463415,226.38909201706264,273.4146341463415,112.85405547868501,546.829268292683,112.85405547868501C863.4146341463415,112.85405547868501,863.4146341463415,333.81051707102887,1180,333.81051707102887L1180,345.4308925238777C863.4146341463415,345.4308925238777,863.4146341463415,125.64841536535559,546.829268292683,125.64841536535559C273.4146341463415,125.64841536535559,273.4146341463415,238.17763558805598,0,238.17763558805598Z"><title>88</title></path><path fill="rgb(77, 163, 177)" d="M0,414.0348872638635C273.4146341463415,414.0348872638635,273.4146341463415,200.27344007379605,546.829268292683,200.27344007379605C863.4146341463415,200.27344007379605,863.4146341463415,92.7674827094086,1180,92.7674827094086L1180,105.42968492699555C863.4146341463415,105.42968492699555,863.4146341463415,212.53870988996522,546.829268292683,212.53870988996522C273.4146341463415,212.53870988996522,273.4146341463415,425.0449421084704,0,425.0449421084704Z"><title>89</title></path><path fill="rgb(72, 154, 179)" d="M0,212.48933577087126C273.4146341463415,212.48933577087126,273.4146341463415,52.666534888317955,546.829268292683,52.666534888317955C863.4146341463415,52.666534888317955,863.4146341463415,3.4719508178728233,1180,3.4719508178728233L1180,16.494785377099944C863.4146341463415,16.494785377099944,863.4146341463415,65.89378665085337,546.829268292683,65.89378665085337C273.4146341463415,65.89378665085337,273.4146341463415,224.38909201706264,0,224.38909201706264Z"><title>90</title></path><path fill="rgb(68, 145, 180)" d="M0,640.6534125533211C273.4146341463415,640.6534125533211,273.4146341463415,156.75614416551375,546.829268292683,156.75614416551375C863.4146341463415,156.75614416551375,863.4146341463415,388.2118783620597,1180,388.2118783620597L1180,399.6719727741796C863.4146341463415,399.6719727741796,863.4146341463415,169.26190946827458,546.829268292683,169.26190946827458C273.4146341463415,169.26190946827458,273.4146341463415,650.5513406459476,0,650.5513406459476Z"><title>91</title></path><path fill="rgb(66, 135, 180)" d="M0,156.00060938452148C273.4146341463415,156.00060938452148,273.4146341463415,22.163932265928793,546.829268292683,22.163932265928793C863.4146341463415,22.163932265928793,863.4146341463415,-26.65385882094583,1180,-26.65385882094583L1180,-13.590954001536502C863.4146341463415,-13.590954001536502,863.4146341463415,35.43928312578254,546.829268292683,35.43928312578254C273.4146341463415,35.43928312578254,273.4146341463415,168.23400365630698,0,168.23400365630698Z"><title>93</title></path><path fill="rgb(67, 126, 179)" d="M0,555.0324497257769C273.4146341463415,555.0324497257769,273.4146341463415,37.43928312578254,546.829268292683,37.43928312578254C863.4146341463415,37.43928312578254,863.4146341463415,624.5231090130641,1180,624.5231090130641L1180,634.9413766604458C863.4146341463415,634.9413766604458,863.4146341463415,50.666534888317955,546.829268292683,50.666534888317955C273.4146341463415,50.666534888317955,273.4146341463415,565.5976538695917,0,565.5976538695917Z"><title>94</title></path><path fill="rgb(70, 116, 177)" d="M0,-103.98537477148089C273.4146341463415,-103.98537477148089,273.4146341463415,142.25037886275294,546.829268292683,142.25037886275294C863.4146341463415,142.25037886275294,863.4146341463415,78.02513997145712,1180,78.02513997145712L1180,90.7674827094086C863.4146341463415,90.7674827094086,863.4146341463415,154.75614416551375,546.829268292683,154.75614416551375C273.4146341463415,154.75614416551375,273.4146341463415,-87.97074954296171,0,-87.97074954296171Z"><title>95</title></path><path fill="rgb(74, 107, 174)" d="M0,82.72059719683114C273.4146341463415,82.72059719683114,273.4146341463415,448.19806285827246,546.829268292683,448.19806285827246C863.4146341463415,448.19806285827246,863.4146341463415,265.10758590405123,1180,265.10758590405123L1180,277.04852343835796C863.4146341463415,277.04852343835796,863.4146341463415,459.5013507280754,546.829268292683,459.5013507280754C273.4146341463415,459.5013507280754,273.4146341463415,95.62126751980489,0,95.62126751980489Z"><title>96</title></path><path fill="rgb(80, 98, 171)" d="M0,240.17763558805598C273.4146341463415,240.17763558805598,273.4146341463415,82.97674112143386,546.829268292683,82.97674112143386C863.4146341463415,82.97674112143386,863.4146341463415,151.25601053902756,1180,151.25601053902756L1180,163.75793171588558C863.4146341463415,163.75793171588558,863.4146341463415,95.96349739737775,546.829268292683,95.96349739737775C273.4146341463415,95.96349739737775,273.4146341463415,251.85496648385129,0,251.85496648385129Z"><title>97</title></path><path fill="rgb(87, 88, 166)" d="M0,-122C273.4146341463415,-122,273.4146341463415,474.75653950056005,546.829268292683,474.75653950056005C863.4146341463415,474.75653950056005,863.4146341463415,279.04852343835796,1180,279.04852343835796L1180,290.86925019211793C863.4146341463415,290.86925019211793,863.4146341463415,486.0117282730447,546.829268292683,486.0117282730447C273.4146341463415,486.0117282730447,273.4146341463415,-105.98537477148089,0,-105.98537477148089Z"><title>98</title></path><path fill="rgb(94, 79, 162)" d="M0,112.41072516758061C273.4146341463415,112.41072516758061,273.4146341463415,6.696185016801849,546.829268292683,6.696185016801849C863.4146341463415,6.696185016801849,863.4146341463415,136.67394884180504,1180,136.67394884180504L1180,149.25601053902756C863.4146341463415,149.25601053902756,863.4146341463415,20.163932265928793,546.829268292683,20.163932265928793C273.4146341463415,20.163932265928793,273.4146341463415,125.20018281535636,0,125.20018281535636Z"><title>99</title></path><path fill="rgb(158, 1, 66)" d="M0,267.5322973796465C273.4146341463415,267.5322973796465,273.4146341463415,-8.77156223232511,546.829268292683,-8.77156223232511C863.4146341463415,-8.77156223232511,863.4146341463415,-72.56383796245424,1180,-72.56383796245424L1180,-58.939949500493555C863.4146341463415,-58.939949500493555,863.4146341463415,4.696185016801849,546.829268292683,4.696185016801849C273.4146341463415,4.696185016801849,273.4146341463415,279.20962827544173,0,279.20962827544173Z"><title>100</title></path><path fill="rgb(167, 11, 68)" d="M0,253.85496648385129C273.4146341463415,253.85496648385129,273.4146341463415,354.3054622125586,546.829268292683,354.3054622125586C863.4146341463415,354.3054622125586,863.4146341463415,547.6894280382041,1180,547.6894280382041L1180,558.7087495883194C863.4146341463415,558.7087495883194,863.4146341463415,365.8492455689531,546.829268292683,365.8492455689531C273.4146341463415,365.8492455689531,273.4146341463415,265.5322973796465,0,265.5322973796465Z"><title>101</title></path><path fill="rgb(176, 21, 70)" d="M0,67.4862888482632C273.4146341463415,67.4862888482632,273.4146341463415,712.8968834420505,546.829268292683,712.8968834420505C863.4146341463415,712.8968834420505,863.4146341463415,721.1845427599078,1180,721.1845427599078L1180,730C863.4146341463415,730,863.4146341463415,721.3623245700732,546.829268292683,721.3623245700732C273.4146341463415,721.3623245700732,273.4146341463415,80.72059719683114,0,80.72059719683114Z"><title>102</title></path><path fill="rgb(185, 31, 72)" d="M0,401.02483241925654C273.4146341463415,401.02483241925654,273.4146341463415,553.5180865783752,546.829268292683,553.5180865783752C863.4146341463415,553.5180865783752,863.4146341463415,611.9044900647712,1180,611.9044900647712L1180,622.5231090130641C863.4146341463415,622.5231090130641,863.4146341463415,564.5808789615866,546.829268292683,564.5808789615866C273.4146341463415,564.5808789615866,273.4146341463415,412.0348872638635,0,412.0348872638635Z"><title>103</title></path><path fill="rgb(193, 40, 73)" d="M0,-50.38634978671548C273.4146341463415,-50.38634978671548,273.4146341463415,313.2893193648285,546.829268292683,313.2893193648285C863.4146341463415,313.2893193648285,863.4146341463415,320.19014161818006,1180,320.19014161818006L1180,331.81051707102887C863.4146341463415,331.81051707102887,863.4146341463415,325.02549911049636,546.829268292683,325.02549911049636C273.4146341463415,325.02549911049636,273.4146341463415,-34.70536258379039,0,-34.70536258379039Z"><title>104</title></path><path fill="rgb(201, 50, 74)" d="M0,97.62126751980489C273.4146341463415,97.62126751980489,273.4146341463415,-55.41529946629752,546.829268292683,-55.41529946629752C863.4146341463415,-55.41529946629752,863.4146341463415,-88.74871006696624,1180,-88.74871006696624L1180,-74.56383796245424C863.4146341463415,-74.56383796245424,863.4146341463415,-41.707056730579026,546.829268292683,-41.707056730579026C273.4146341463415,-41.707056730579026,273.4146341463415,110.41072516758061,0,110.41072516758061Z"><title>105</title></path><path fill="rgb(208, 59, 75)" d="M0,184.46739792809245C273.4146341463415,184.46739792809245,273.4146341463415,67.89378665085337,546.829268292683,67.89378665085337C863.4146341463415,67.89378665085337,863.4146341463415,18.494785377099944,1180,18.494785377099944L1180,31.477549676144804C863.4146341463415,31.477549676144804,863.4146341463415,80.97674112143386,546.829268292683,80.97674112143386C273.4146341463415,80.97674112143386,273.4146341463415,196.47836684948186,0,196.47836684948186Z"><title>106</title></path><path fill="rgb(215, 67, 75)" d="M0,-32.70536258379039C273.4146341463415,-32.70536258379039,273.4146341463415,540.4552941951638,546.829268292683,540.4552941951638C863.4146341463415,540.4552941951638,863.4146341463415,521.3302228565157,1180,521.3302228565157L1180,532.5498957075421C863.4146341463415,532.5498957075421,863.4146341463415,551.5180865783752,546.829268292683,551.5180865783752C273.4146341463415,551.5180865783752,273.4146341463415,-17.135588056063426,0,-17.135588056063426Z"><title>107</title></path><path fill="rgb(221, 76, 74)" d="M0,-68.06733698964055C273.4146341463415,-68.06733698964055,273.4146341463415,-24.239309481452068,546.829268292683,-24.239309481452068C863.4146341463415,-24.239309481452068,863.4146341463415,237.06542979470885,1180,237.06542979470885L1180,249.08650784938004C863.4146341463415,249.08650784938004,863.4146341463415,-10.77156223232511,546.829268292683,-10.77156223232511C273.4146341463415,-10.77156223232511,273.4146341463415,-52.38634978671548,0,-52.38634978671548Z"><title>108</title></path><path fill="rgb(227, 84, 73)" d="M0,687.9114868982327C273.4146341463415,687.9114868982327,273.4146341463415,527.3925018119523,546.829268292683,527.3925018119523C863.4146341463415,527.3925018119523,863.4146341463415,686.5343067296081,1180,686.5343067296081L1180,696.4316609946206C863.4146341463415,696.4316609946206,863.4146341463415,538.4552941951638,546.829268292683,538.4552941951638C273.4146341463415,538.4552941951638,273.4146341463415,697.5869896404631,0,697.5869896404631Z"><title>109</title></path><path fill="rgb(232, 93, 73)" d="M0,628.6442717854966C273.4146341463415,628.6442717854966,273.4146341463415,285.48026619226476,546.829268292683,285.48026619226476C863.4146341463415,285.48026619226476,863.4146341463415,292.86925019211793,1180,292.86925019211793L1180,304.56976616533126C863.4146341463415,304.56976616533126,863.4146341463415,297.5050405218423,546.829268292683,297.5050405218423C273.4146341463415,297.5050405218423,273.4146341463415,638.6534125533211,0,638.6534125533211Z"><title>110</title></path><path fill="rgb(236, 101, 73)" d="M0,664.449268738574C273.4146341463415,664.449268738574,273.4146341463415,566.5808789615866,546.829268292683,566.5808789615866C863.4146341463415,566.5808789615866,863.4146341463415,586.4268306070919,1180,586.4268306070919L1180,597.1656603359315C863.4146341463415,597.1656603359315,863.4146341463415,577.5474731501614,546.829268292683,577.5474731501614C273.4146341463415,577.5474731501614,273.4146341463415,674.2359841560024,0,674.2359841560024Z"><title>111</title></path><path fill="rgb(240, 110, 74)" d="M0,334.86243144424134C273.4146341463415,334.86243144424134,273.4146341463415,299.5050405218423,546.829268292683,299.5050405218423C863.4146341463415,299.5050405218423,863.4146341463415,374.67164342957534,1180,374.67164342957534L1180,386.2118783620597C863.4146341463415,386.2118783620597,863.4146341463415,311.2893193648285,546.829268292683,311.2893193648285C273.4146341463415,311.2893193648285,273.4146341463415,346.20612431444243,0,346.20612431444243Z"><title>112</title></path><path fill="rgb(243, 119, 76)" d="M0,51.58470444850698C273.4146341463415,51.58470444850698,273.4146341463415,-104.60828885814044,546.829268292683,-104.60828885814044C863.4146341463415,-104.60828885814044,863.4146341463415,-41.716763640355225,1180,-41.716763640355225L1180,-28.65385882094583C863.4146341463415,-28.65385882094583,863.4146341463415,-89.69756868946419,546.829268292683,-89.69756868946419C273.4146341463415,-89.69756868946419,273.4146341463415,65.4862888482632,0,65.4862888482632Z"><title>113</title></path><path fill="rgb(245, 129, 78)" d="M0,141.767215112736C273.4146341463415,141.767215112736,273.4146341463415,702.4314423140278,546.829268292683,702.4314423140278C863.4146341463415,702.4314423140278,863.4146341463415,33.477549676144804,1180,33.477549676144804L1180,46.38017345482521C863.4146341463415,46.38017345482521,863.4146341463415,710.8968834420505,546.829268292683,710.8968834420505C273.4146341463415,710.8968834420505,273.4146341463415,154.00060938452148,0,154.00060938452148Z"><title>114</title></path><path fill="rgb(247, 139, 82)" d="M0,-85.97074954296171C273.4146341463415,-85.97074954296171,273.4146341463415,723.3623245700732,546.829268292683,723.3623245700732C863.4146341463415,723.3623245700732,863.4146341463415,508.11055000548924,1180,508.11055000548924L1180,519.3302228565157C863.4146341463415,519.3302228565157,863.4146341463415,730,546.829268292683,730C273.4146341463415,730,273.4146341463415,-70.06733698964055,0,-70.06733698964055Z"><title>115</title></path><path fill="rgb(249, 149, 87)" d="M0,592.283211456429C273.4146341463415,592.283211456429,273.4146341463415,501.17071885089285,546.829268292683,501.17071885089285C863.4146341463415,501.17071885089285,863.4146341463415,441.9320452299926,1180,441.9320452299926L1180,453.23185860138346C863.4146341463415,453.23185860138346,863.4146341463415,512.3297094287409,546.829268292683,512.3297094287409C273.4146341463415,512.3297094287409,273.4146341463415,602.5147775746495,0,602.5147775746495Z"><title>117</title></path><path fill="rgb(250, 159, 92)" d="M0,676.2359841560024C273.4146341463415,676.2359841560024,273.4146341463415,643.370363049351,546.829268292683,643.370363049351C863.4146341463415,643.370363049351,863.4146341463415,698.4316609946206,1180,698.4316609946206L1180,708.2889449994511C863.4146341463415,708.2889449994511,863.4146341463415,653.8559662647427,546.829268292683,653.8559662647427C273.4146341463415,653.8559662647427,273.4146341463415,685.9114868982327,0,685.9114868982327Z"><title>118</title></path><path fill="rgb(251, 169, 97)" d="M0,127.20018281535636C273.4146341463415,127.20018281535636,273.4146341463415,-71.36403768860762,546.829268292683,-71.36403768860762C863.4146341463415,-71.36403768860762,863.4146341463415,-56.939949500493555,1180,-56.939949500493555L1180,-43.716763640355225C863.4146341463415,-43.716763640355225,863.4146341463415,-57.41529946629752,546.829268292683,-57.41529946629752C273.4146341463415,-57.41529946629752,273.4146341463415,139.767215112736,0,139.767215112736Z"><title>119</title></path><path fill="rgb(252, 178, 103)" d="M0,616.6351310176722C273.4146341463415,616.6351310176722,273.4146341463415,381.296830730711,546.829268292683,381.296830730711C863.4146341463415,381.296830730711,863.4146341463415,494.8908771544628,1180,494.8908771544628L1180,506.11055000548924C863.4146341463415,506.11055000548924,863.4146341463415,392.7444158924689,546.829268292683,392.7444158924689C273.4146341463415,392.7444158924689,273.4146341463415,626.6442717854966,0,626.6442717854966Z"><title>120</title></path><path fill="rgb(253, 187, 109)" d="M0,321.5187385740402C273.4146341463415,321.5187385740402,273.4146341463415,127.64841536535559,546.829268292683,127.64841536535559C863.4146341463415,127.64841536535559,863.4146341463415,194.52135250850824,1180,194.52135250850824L1180,206.70271160390843C863.4146341463415,206.70271160390843,863.4146341463415,140.25037886275294,546.829268292683,140.25037886275294C273.4146341463415,140.25037886275294,273.4146341463415,332.86243144424134,0,332.86243144424134Z"><title>121</title></path><path fill="rgb(253, 195, 116)" d="M0,699.5869896404631C273.4146341463415,699.5869896404631,273.4146341463415,655.8559662647427,546.829268292683,655.8559662647427C863.4146341463415,655.8559662647427,863.4146341463415,573.6078603578878,1180,573.6078603578878L1180,584.4268306070919C863.4146341463415,584.4268306070919,863.4146341463415,666.2453712854976,546.829268292683,666.2453712854976C273.4146341463415,666.2453712854976,273.4146341463415,709.1512797074954,0,709.1512797074954Z"><title>122</title></path><path fill="rgb(254, 203, 123)" d="M0,542.4672455819622C273.4146341463415,542.4672455819622,273.4146341463415,367.8492455689531,546.829268292683,367.8492455689531C863.4146341463415,367.8492455689531,863.4146341463415,428.5520913382371,1180,428.5520913382371L1180,439.9320452299926C863.4146341463415,439.9320452299926,863.4146341463415,379.296830730711,546.829268292683,379.296830730711C273.4146341463415,379.296830730711,273.4146341463415,553.0324497257769,0,553.0324497257769Z"><title>123</title></path><path fill="rgb(254, 211, 130)" d="M0,529.9020414381474C273.4146341463415,529.9020414381474,273.4146341463415,340.7616788561641,546.829268292683,340.7616788561641C863.4146341463415,340.7616788561641,863.4146341463415,165.75793171588558,1180,165.75793171588558L1180,178.17971237237913C863.4146341463415,178.17971237237913,863.4146341463415,352.3054622125586,546.829268292683,352.3054622125586C273.4146341463415,352.3054622125586,273.4146341463415,540.4672455819622,0,540.4672455819622Z"><title>124</title></path><path fill="rgb(254, 218, 138)" d="M0,580.0516453382083C273.4146341463415,580.0516453382083,273.4146341463415,461.5013507280754,546.829268292683,461.5013507280754C863.4146341463415,461.5013507280754,863.4146341463415,415.1320671862995,1180,415.1320671862995L1180,426.5520913382371C863.4146341463415,426.5520913382371,863.4146341463415,472.75653950056005,546.829268292683,472.75653950056005C273.4146341463415,472.75653950056005,273.4146341463415,590.283211456429,0,590.283211456429Z"><title>225</title></path><path fill="rgb(254, 236, 160)" d="M0,721.9370810481413C273.4146341463415,721.9370810481413,273.4146341463415,691.5812084074586,546.829268292683,691.5812084074586C863.4146341463415,691.5812084074586,863.4146341463415,710.2889449994511,1180,710.2889449994511L1180,719.1845427599078C863.4146341463415,719.1845427599078,863.4146341463415,700.4314423140278,546.829268292683,700.4314423140278C273.4146341463415,700.4314423140278,273.4146341463415,730,0,730Z"><title>347</title></path><path fill="rgb(254, 225, 145)" d="M0,517.3368372943328C273.4146341463415,517.3368372943328,273.4146341463415,394.7444158924689,546.829268292683,394.7444158924689C863.4146341463415,394.7444158924689,863.4146341463415,306.56976616533126,1180,306.56976616533126L1180,318.19014161818006C863.4146341463415,318.19014161818006,863.4146341463415,406.1439019569085,546.829268292683,406.1439019569085C273.4146341463415,406.1439019569085,273.4146341463415,527.9020414381474,0,527.9020414381474Z"><title>285</title></path><path fill="rgb(254, 231, 153)" d="M0,604.5147775746495C273.4146341463415,604.5147775746495,273.4146341463415,514.3297094287409,546.829268292683,514.3297094287409C863.4146341463415,514.3297094287409,863.4146341463415,560.7087495883194,1180,560.7087495883194L1180,571.6078603578878C863.4146341463415,571.6078603578878,863.4146341463415,525.3925018119523,546.829268292683,525.3925018119523C273.4146341463415,525.3925018119523,273.4146341463415,614.6351310176722,0,614.6351310176722Z"><title>286</title></path></g><g id="xAxis" transform="translate(0,730)" fill="none" font-size="10" font-family="sans-serif" text-anchor="middle"><path class="domain" stroke="currentColor" d="M0.5,0.5H1180.5"/><g class="tick" opacity="1" transform="translate(0.5,0)"><line stroke="currentColor" y2="6"/><text fill="currentColor" y="9" dy="0.71em">Sep 07</text></g><g class="tick" opacity="1" transform="translate(101.23170731707317,0)"><line stroke="currentColor" y2="6"/><text fill="currentColor" y="9" dy="0.71em">Sep 14</text></g><g class="tick" opacity="1" transform="translate(201.96341463414635,0)"><line stroke="currentColor" y2="6"/><text fill="currentColor" y="9" dy="0.71em">Sep 21</text></g><g class="tick" opacity="1" transform="translate(302.6951219512195,0)"><line stroke="currentColor" y2="6"/><text fill="currentColor" y="9" dy="0.71em">Sep 28</text></g><g class="tick" opacity="1" transform="translate(403.4268292682927,0)"><line stroke="currentColor" y2="6"/><text fill="currentColor" y="9" dy="0.71em">Oct 05</text></g><g class="tick" opacity="1" transform="translate(504.1585365853658,0)"><line stroke="currentColor" y2="6"/><text fill="currentColor" y="9" dy="0.71em">Oct 12</text></g><g class="tick" opacity="1" transform="translate(604.890243902439,0)"><line stroke="currentColor" y2="6"/><text fill="currentColor" y="9" dy="0.71em">Oct 19</text></g><g class="tick" opacity="1" transform="translate(705.6219512195122,0)"><line stroke="currentColor" y2="6"/><text fill="currentColor" y="9" dy="0.71em">Oct 26</text></g><g class="tick" opacity="1" transform="translate(806.3536585365854,0)"><line stroke="currentColor" y2="6"/><text fill="currentColor" y="9" dy="0.71em">Nov 02</text></g><g class="tick" opacity="1" transform="translate(907.0853658536586,0)"><line stroke="currentColor" y2="6"/><text fill="currentColor" y="9" dy="0.71em">Nov 09</text></g><g class="tick" opacity="1" transform="translate(1007.8170731707316,0)"><line stroke="currentColor" y2="6"/><text fill="currentColor" y="9" dy="0.71em">Nov 16</text></g><g class="tick" opacity="1" transform="translate(1108.5487804878048,0)"><line stroke="currentColor" y2="6"/><text fill="currentColor" y="9" dy="0.71em">Nov 23</text></g></g><text y="726" x="1180" text-anchor="end" style="font-family: Arial, sans-serif; font-size: 12px; fill: rgb(123, 123, 123); font-weight: bold;">fecha</text><text x="4" text-anchor="start" dominant-baseline="hanging" style="font-family: Arial, sans-serif; font-size: 12px; fill: rgb(123, 123, 123); font-weight: bold;">peso</text><g id="labels"><text x="546.829268292683" y="-32.97318310601554" text-anchor="middle" alignment-baseline="middle" style="font-family: Arial, sans-serif; font-size: 10px; fill: black; font-weight: bold; stroke-width: 2px; paint-order: stroke; stroke: white; stroke-linecap: round; stroke-linejoin: round;">65</text><text x="0" y="286.9370810481413" text-anchor="start" alignment-baseline="middle" style="font-family: Arial, sans-serif; font-size: 10px; fill: black; font-weight: bold; stroke-width: 2px; paint-order: stroke; stroke: white; stroke-linecap: round; stroke-linejoin: round;">66</text><text x="0" y="9.551797684338837" text-anchor="start" alignment-baseline="middle" style="font-family: Arial, sans-serif; font-size: 10px; fill: black; font-weight: bold; stroke-width: 2px; paint-order: stroke; stroke: white; stroke-linecap: round; stroke-linejoin: round;">67</text><text x="1180" y="228.97475024700873" text-anchor="end" alignment-baseline="middle" style="font-family: Arial, sans-serif; font-size: 10px; fill: black; font-weight: bold; stroke-width: 2px; paint-order: stroke; stroke: white; stroke-linecap: round; stroke-linejoin: round;">68</text><text x="546.829268292683" y="-114.30414442907013" text-anchor="middle" alignment-baseline="middle" style="font-family: Arial, sans-serif; font-size: 10px; fill: black; font-weight: bold; stroke-width: 2px; paint-order: stroke; stroke: white; stroke-linecap: round; stroke-linejoin: round;">69</text><text x="0" y="42.49489640463128" text-anchor="start" alignment-baseline="middle" style="font-family: Arial, sans-serif; font-size: 10px; fill: black; font-weight: bold; stroke-width: 2px; paint-order: stroke; stroke: white; stroke-linecap: round; stroke-linejoin: round;">70</text><text x="0" y="-7.489716636197485" text-anchor="start" alignment-baseline="middle" style="font-family: Arial, sans-serif; font-size: 10px; fill: black; font-weight: bold; stroke-width: 2px; paint-order: stroke; stroke: white; stroke-linecap: round; stroke-linejoin: round;">71</text><text x="1180" y="214.79339115160855" text-anchor="end" alignment-baseline="middle" style="font-family: Arial, sans-serif; font-size: 10px; fill: black; font-weight: bold; stroke-width: 2px; paint-order: stroke; stroke: white; stroke-linecap: round; stroke-linejoin: round;">72</text><text x="1180" y="128.38291799319376" text-anchor="end" alignment-baseline="middle" style="font-family: Arial, sans-serif; font-size: 10px; fill: black; font-weight: bold; stroke-width: 2px; paint-order: stroke; stroke: white; stroke-linecap: round; stroke-linejoin: round;">73</text><text x="1180" y="69.61389834229908" text-anchor="end" alignment-baseline="middle" style="font-family: Arial, sans-serif; font-size: 10px; fill: black; font-weight: bold; stroke-width: 2px; paint-order: stroke; stroke: white; stroke-linecap: round; stroke-linejoin: round;">74</text><text x="546.829268292683" y="636.0794623443369" text-anchor="middle" alignment-baseline="middle" style="font-family: Arial, sans-serif; font-size: 10px; fill: black; font-weight: bold; stroke-width: 2px; paint-order: stroke; stroke: white; stroke-linecap: round; stroke-linejoin: round;">75</text><text x="546.829268292683" y="104.4087764380314" text-anchor="middle" alignment-baseline="middle" style="font-family: Arial, sans-serif; font-size: 10px; fill: black; font-weight: bold; stroke-width: 2px; paint-order: stroke; stroke: white; stroke-linecap: round; stroke-linejoin: round;">76</text><text x="546.829268292683" y="192.0205574224156" text-anchor="middle" alignment-baseline="middle" style="font-family: Arial, sans-serif; font-size: 10px; fill: black; font-weight: bold; stroke-width: 2px; paint-order: stroke; stroke: white; stroke-linecap: round; stroke-linejoin: round;">77</text><text x="546.829268292683" y="413.81959544046913" text-anchor="middle" alignment-baseline="middle" style="font-family: Arial, sans-serif; font-size: 10px; fill: black; font-weight: bold; stroke-width: 2px; paint-order: stroke; stroke: white; stroke-linecap: round; stroke-linejoin: round;">78</text><text x="546.829268292683" y="597.9492653357054" text-anchor="middle" alignment-baseline="middle" style="font-family: Arial, sans-serif; font-size: 10px; fill: black; font-weight: bold; stroke-width: 2px; paint-order: stroke; stroke: white; stroke-linecap: round; stroke-linejoin: round;">79</text><text x="1180" y="460.8416950268966" text-anchor="end" alignment-baseline="middle" style="font-family: Arial, sans-serif; font-size: 10px; fill: black; font-weight: bold; stroke-width: 2px; paint-order: stroke; stroke: white; stroke-linecap: round; stroke-linejoin: round;">80</text><text x="546.829268292683" y="623.4976609343084" text-anchor="middle" alignment-baseline="middle" style="font-family: Arial, sans-serif; font-size: 10px; fill: black; font-weight: bold; stroke-width: 2px; paint-order: stroke; stroke: white; stroke-linecap: round; stroke-linejoin: round;">81</text><text x="546.829268292683" y="-80.53080318903594" text-anchor="middle" alignment-baseline="middle" style="font-family: Arial, sans-serif; font-size: 10px; fill: black; font-weight: bold; stroke-width: 2px; paint-order: stroke; stroke: white; stroke-linecap: round; stroke-linejoin: round;">82</text><text x="1180" y="113.76078603578901" text-anchor="end" alignment-baseline="middle" style="font-family: Arial, sans-serif; font-size: 10px; fill: black; font-weight: bold; stroke-width: 2px; paint-order: stroke; stroke: white; stroke-linecap: round; stroke-linejoin: round;">83</text><text x="546.829268292683" y="263.29880740594336" text-anchor="middle" alignment-baseline="middle" style="font-family: Arial, sans-serif; font-size: 10px; fill: black; font-weight: bold; stroke-width: 2px; paint-order: stroke; stroke: white; stroke-linecap: round; stroke-linejoin: round;">84</text><text x="1180" y="-5.059501591831847" text-anchor="end" alignment-baseline="middle" style="font-family: Arial, sans-serif; font-size: 10px; fill: black; font-weight: bold; stroke-width: 2px; paint-order: stroke; stroke: white; stroke-linecap: round; stroke-linejoin: round;">85</text><text x="546.829268292683" y="220.67134479804986" text-anchor="middle" alignment-baseline="middle" style="font-family: Arial, sans-serif; font-size: 10px; fill: black; font-weight: bold; stroke-width: 2px; paint-order: stroke; stroke: white; stroke-linecap: round; stroke-linejoin: round;">86</text><text x="546.829268292683" y="234.91256506555982" text-anchor="middle" alignment-baseline="middle" style="font-family: Arial, sans-serif; font-size: 10px; fill: black; font-weight: bold; stroke-width: 2px; paint-order: stroke; stroke: white; stroke-linecap: round; stroke-linejoin: round;">87</text><text x="546.829268292683" y="119.25123542202027" text-anchor="middle" alignment-baseline="middle" style="font-family: Arial, sans-serif; font-size: 10px; fill: black; font-weight: bold; stroke-width: 2px; paint-order: stroke; stroke: white; stroke-linecap: round; stroke-linejoin: round;">88</text><text x="1180" y="99.09858381820206" text-anchor="end" alignment-baseline="middle" style="font-family: Arial, sans-serif; font-size: 10px; fill: black; font-weight: bold; stroke-width: 2px; paint-order: stroke; stroke: white; stroke-linecap: round; stroke-linejoin: round;">89</text><text x="546.829268292683" y="59.28016076958562" text-anchor="middle" alignment-baseline="middle" style="font-family: Arial, sans-serif; font-size: 10px; fill: black; font-weight: bold; stroke-width: 2px; paint-order: stroke; stroke: white; stroke-linecap: round; stroke-linejoin: round;">90</text><text x="546.829268292683" y="163.00902681689416" text-anchor="middle" alignment-baseline="middle" style="font-family: Arial, sans-serif; font-size: 10px; fill: black; font-weight: bold; stroke-width: 2px; paint-order: stroke; stroke: white; stroke-linecap: round; stroke-linejoin: round;">91</text><text x="546.829268292683" y="28.801607695855665" text-anchor="middle" alignment-baseline="middle" style="font-family: Arial, sans-serif; font-size: 10px; fill: black; font-weight: bold; stroke-width: 2px; paint-order: stroke; stroke: white; stroke-linecap: round; stroke-linejoin: round;">93</text><text x="546.829268292683" y="44.05290900705029" text-anchor="middle" alignment-baseline="middle" style="font-family: Arial, sans-serif; font-size: 10px; fill: black; font-weight: bold; stroke-width: 2px; paint-order: stroke; stroke: white; stroke-linecap: round; stroke-linejoin: round;">94</text><text x="0" y="-95.97806215722134" text-anchor="start" alignment-baseline="middle" style="font-family: Arial, sans-serif; font-size: 10px; fill: black; font-weight: bold; stroke-width: 2px; paint-order: stroke; stroke: white; stroke-linecap: round; stroke-linejoin: round;">95</text><text x="0" y="89.17093235831805" text-anchor="start" alignment-baseline="middle" style="font-family: Arial, sans-serif; font-size: 10px; fill: black; font-weight: bold; stroke-width: 2px; paint-order: stroke; stroke: white; stroke-linecap: round; stroke-linejoin: round;">96</text><text x="546.829268292683" y="89.4701192594058" text-anchor="middle" alignment-baseline="middle" style="font-family: Arial, sans-serif; font-size: 10px; fill: black; font-weight: bold; stroke-width: 2px; paint-order: stroke; stroke: white; stroke-linecap: round; stroke-linejoin: round;">97</text><text x="0" y="-113.99268738574045" text-anchor="start" alignment-baseline="middle" style="font-family: Arial, sans-serif; font-size: 10px; fill: black; font-weight: bold; stroke-width: 2px; paint-order: stroke; stroke: white; stroke-linecap: round; stroke-linejoin: round;">98</text><text x="546.829268292683" y="13.43005864136532" text-anchor="middle" alignment-baseline="middle" style="font-family: Arial, sans-serif; font-size: 10px; fill: black; font-weight: bold; stroke-width: 2px; paint-order: stroke; stroke: white; stroke-linecap: round; stroke-linejoin: round;">99</text><text x="1180" y="-65.75189373147394" text-anchor="end" alignment-baseline="middle" style="font-family: Arial, sans-serif; font-size: 10px; fill: black; font-weight: bold; stroke-width: 2px; paint-order: stroke; stroke: white; stroke-linecap: round; stroke-linejoin: round;">100</text><text x="0" y="259.6936319317488" text-anchor="start" alignment-baseline="middle" style="font-family: Arial, sans-serif; font-size: 10px; fill: black; font-weight: bold; stroke-width: 2px; paint-order: stroke; stroke: white; stroke-linecap: round; stroke-linejoin: round;">101</text><text x="0" y="74.10344302254717" text-anchor="start" alignment-baseline="middle" style="font-family: Arial, sans-serif; font-size: 10px; fill: black; font-weight: bold; stroke-width: 2px; paint-order: stroke; stroke: white; stroke-linecap: round; stroke-linejoin: round;">102</text><text x="546.829268292683" y="559.0494827699808" text-anchor="middle" alignment-baseline="middle" style="font-family: Arial, sans-serif; font-size: 10px; fill: black; font-weight: bold; stroke-width: 2px; paint-order: stroke; stroke: white; stroke-linecap: round; stroke-linejoin: round;">103</text><text x="0" y="-42.54585618525289" text-anchor="start" alignment-baseline="middle" style="font-family: Arial, sans-serif; font-size: 10px; fill: black; font-weight: bold; stroke-width: 2px; paint-order: stroke; stroke: white; stroke-linecap: round; stroke-linejoin: round;">104</text><text x="1180" y="-81.65627401471028" text-anchor="end" alignment-baseline="middle" style="font-family: Arial, sans-serif; font-size: 10px; fill: black; font-weight: bold; stroke-width: 2px; paint-order: stroke; stroke: white; stroke-linecap: round; stroke-linejoin: round;">105</text><text x="546.829268292683" y="74.43526388614362" text-anchor="middle" alignment-baseline="middle" style="font-family: Arial, sans-serif; font-size: 10px; fill: black; font-weight: bold; stroke-width: 2px; paint-order: stroke; stroke: white; stroke-linecap: round; stroke-linejoin: round;">106</text><text x="0" y="-24.920475319926908" text-anchor="start" alignment-baseline="middle" style="font-family: Arial, sans-serif; font-size: 10px; fill: black; font-weight: bold; stroke-width: 2px; paint-order: stroke; stroke: white; stroke-linecap: round; stroke-linejoin: round;">107</text><text x="0" y="-60.22684338817806" text-anchor="start" alignment-baseline="middle" style="font-family: Arial, sans-serif; font-size: 10px; fill: black; font-weight: bold; stroke-width: 2px; paint-order: stroke; stroke: white; stroke-linecap: round; stroke-linejoin: round;">108</text><text x="546.829268292683" y="532.9238980035581" text-anchor="middle" alignment-baseline="middle" style="font-family: Arial, sans-serif; font-size: 10px; fill: black; font-weight: bold; stroke-width: 2px; paint-order: stroke; stroke: white; stroke-linecap: round; stroke-linejoin: round;">109</text><text x="546.829268292683" y="291.49265335705354" text-anchor="middle" alignment-baseline="middle" style="font-family: Arial, sans-serif; font-size: 10px; fill: black; font-weight: bold; stroke-width: 2px; paint-order: stroke; stroke: white; stroke-linecap: round; stroke-linejoin: round;">110</text><text x="546.829268292683" y="572.064176055874" text-anchor="middle" alignment-baseline="middle" style="font-family: Arial, sans-serif; font-size: 10px; fill: black; font-weight: bold; stroke-width: 2px; paint-order: stroke; stroke: white; stroke-linecap: round; stroke-linejoin: round;">111</text><text x="546.829268292683" y="305.3971799433354" text-anchor="middle" alignment-baseline="middle" style="font-family: Arial, sans-serif; font-size: 10px; fill: black; font-weight: bold; stroke-width: 2px; paint-order: stroke; stroke: white; stroke-linecap: round; stroke-linejoin: round;">112</text><text x="546.829268292683" y="-97.15292877380227" text-anchor="middle" alignment-baseline="middle" style="font-family: Arial, sans-serif; font-size: 10px; fill: black; font-weight: bold; stroke-width: 2px; paint-order: stroke; stroke: white; stroke-linecap: round; stroke-linejoin: round;">113</text><text x="1180" y="39.92886156548502" text-anchor="end" alignment-baseline="middle" style="font-family: Arial, sans-serif; font-size: 10px; fill: black; font-weight: bold; stroke-width: 2px; paint-order: stroke; stroke: white; stroke-linecap: round; stroke-linejoin: round;">114</text><text x="0" y="-78.0190432663011" text-anchor="start" alignment-baseline="middle" style="font-family: Arial, sans-serif; font-size: 10px; fill: black; font-weight: bold; stroke-width: 2px; paint-order: stroke; stroke: white; stroke-linecap: round; stroke-linejoin: round;">115</text><text x="1180" y="447.581951915688" text-anchor="end" alignment-baseline="middle" style="font-family: Arial, sans-serif; font-size: 10px; fill: black; font-weight: bold; stroke-width: 2px; paint-order: stroke; stroke: white; stroke-linecap: round; stroke-linejoin: round;">117</text><text x="546.829268292683" y="648.6131646570468" text-anchor="middle" alignment-baseline="middle" style="font-family: Arial, sans-serif; font-size: 10px; fill: black; font-weight: bold; stroke-width: 2px; paint-order: stroke; stroke: white; stroke-linecap: round; stroke-linejoin: round;">118</text><text x="546.829268292683" y="-64.38966857745254" text-anchor="middle" alignment-baseline="middle" style="font-family: Arial, sans-serif; font-size: 10px; fill: black; font-weight: bold; stroke-width: 2px; paint-order: stroke; stroke: white; stroke-linecap: round; stroke-linejoin: round;">119</text><text x="546.829268292683" y="387.02062331159" text-anchor="middle" alignment-baseline="middle" style="font-family: Arial, sans-serif; font-size: 10px; fill: black; font-weight: bold; stroke-width: 2px; paint-order: stroke; stroke: white; stroke-linecap: round; stroke-linejoin: round;">120</text><text x="546.829268292683" y="133.9493971140543" text-anchor="middle" alignment-baseline="middle" style="font-family: Arial, sans-serif; font-size: 10px; fill: black; font-weight: bold; stroke-width: 2px; paint-order: stroke; stroke: white; stroke-linecap: round; stroke-linejoin: round;">121</text><text x="1180" y="579.01734548249" text-anchor="end" alignment-baseline="middle" style="font-family: Arial, sans-serif; font-size: 10px; fill: black; font-weight: bold; stroke-width: 2px; paint-order: stroke; stroke: white; stroke-linecap: round; stroke-linejoin: round;">122</text><text x="546.829268292683" y="373.5730381498321" text-anchor="middle" alignment-baseline="middle" style="font-family: Arial, sans-serif; font-size: 10px; fill: black; font-weight: bold; stroke-width: 2px; paint-order: stroke; stroke: white; stroke-linecap: round; stroke-linejoin: round;">123</text><text x="1180" y="171.9688220441323" text-anchor="end" alignment-baseline="middle" style="font-family: Arial, sans-serif; font-size: 10px; fill: black; font-weight: bold; stroke-width: 2px; paint-order: stroke; stroke: white; stroke-linecap: round; stroke-linejoin: round;">124</text><text x="1180" y="420.8420792622683" text-anchor="end" alignment-baseline="middle" style="font-family: Arial, sans-serif; font-size: 10px; fill: black; font-weight: bold; stroke-width: 2px; paint-order: stroke; stroke: white; stroke-linecap: round; stroke-linejoin: round;">225</text><text x="1180" y="714.7367438796795" text-anchor="end" alignment-baseline="middle" style="font-family: Arial, sans-serif; font-size: 10px; fill: black; font-weight: bold; stroke-width: 2px; paint-order: stroke; stroke: white; stroke-linecap: round; stroke-linejoin: round;">347</text><text x="1180" y="312.3799538917556" text-anchor="end" alignment-baseline="middle" style="font-family: Arial, sans-serif; font-size: 10px; fill: black; font-weight: bold; stroke-width: 2px; paint-order: stroke; stroke: white; stroke-linecap: round; stroke-linejoin: round;">285</text><text x="546.829268292683" y="519.8611056203466" text-anchor="middle" alignment-baseline="middle" style="font-family: Arial, sans-serif; font-size: 10px; fill: black; font-weight: bold; stroke-width: 2px; paint-order: stroke; stroke: white; stroke-linecap: round; stroke-linejoin: round;">286</text></g></g></g></g></svg>