<svg xmlns="http://www.w3.org/2000/svg" width="805" height="600"><rect width="805" height="600" x="0" y="0" fill="#FFFFFF" id="background"/><g transform="translate(20,20)" id="viz"><g id="nodes"><g transform="translate(383.5,281)"><path id="p_945.5" d="M-5.143516556418883e-14,280A280,280,0,1,1,5.143516556418883e-14,-280A280,280,0,1,1,-5.143516556418883e-14,280Z" fill="none" stroke="#ccc"/></g><g transform="translate(271.15979850794827,250.41344844044426)" id="Toyota"><path id="p_662.4476031713461" d="M-2.5694502394685522e-14,139.87435622295362A139.87435622295362,139.87435622295362,0,1,1,2.5694502394685522e-14,-139.87435622295362A139.87435622295362,139.87435622295362,0,1,1,-2.5694502394685522e-14,139.87435622295362Z" fill="none" stroke="#ccc"/></g><g transform="translate(535.7460477140876,250.41344844044426)" id="Volkswagen"><path id="p_910.022040859478" d="M-2.256948331620165e-14,122.86254470494625A122.86254470494625,122.86254470494625,0,1,1,2.256948331620165e-14,-122.86254470494625A122.86254470494625,122.86254470494625,0,1,1,-2.256948331620165e-14,122.86254470494625Z" fill="none" stroke="#ccc"/></g><g transform="translate(418.83872885578137,449.4037277292578)" id="Ford"><path id="p_975.3214916169679" d="M-1.9486402606273718e-14,106.07903503192873A106.07903503192873,106.07903503192873,0,1,1,1.9486402606273718e-14,-106.07903503192873A106.07903503192873,106.07903503192873,0,1,1,-1.9486402606273718e-14,106.07903503192873Z" fill="none" stroke="#ccc"/></g><g transform="translate(415.4908048275389,118.20284291439398)" id="Renault"><path id="p_588.702116372268" d="M-9.92119473524854e-15,54.00846863033523A54.00846863033523,54.00846863033523,0,1,1,9.92119473524854e-15,-54.00846863033523A54.00846863033523,54.00846863033523,0,1,1,-9.92119473524854e-15,54.00846863033523Z" fill="none" stroke="#ccc"/></g><g transform="translate(322.3957899030165,63.42450254652144)" id="Chevrolet"><path id="p_438.9779761751572" d="M-9.581211063827938e-15,52.157683725619236A52.157683725619236,52.157683725619236,0,1,1,9.581211063827938e-15,-52.157683725619236A52.157683725619236,52.157683725619236,0,1,1,-9.581211063827938e-15,52.157683725619236Z" fill="none" stroke="#ccc"/></g><g transform="translate(508.35695174414195,85.28917354998114)" id="Nissan"><path id="p_637.3146037293093" d="M-7.838072331020795e-15,42.668478435186195A42.668478435186195,42.668478435186195,0,1,1,7.838072331020795e-15,-42.668478435186195A42.668478435186195,42.668478435186195,0,1,1,-7.838072331020795e-15,42.668478435186195Z" fill="none" stroke="#ccc"/></g><g transform="translate(214.53871570942312,223.49631225158137)" id="Hilux 2.8"><path id="p_514.3665016466962" d="M-1.3838167218635308e-14,75.33147368569169A75.33147368569169,75.33147368569169,0,1,1,1.3838167218635308e-14,-75.33147368569169A75.33147368569169,75.33147368569169,0,1,1,-1.3838167218635308e-14,75.33147368569169Z" fill="none" stroke="#ccc"/></g><g transform="translate(348.167802872992,223.49631225158137)" id="Etios"><path id="p_629.1123803242111" d="M-1.0369378094123596e-14,56.44826519963776A56.44826519963776,56.44826519963776,0,1,1,1.0369378094123596e-14,-56.44826519963776A56.44826519963776,56.44826519963776,0,1,1,-1.0369378094123596e-14,56.44826519963776Z" fill="none" stroke="#ccc"/></g><g transform="translate(298.90226887529894,327.12798614232355)" id="Corolla"><path id="p_683.4785202172602" d="M-1.0369378094123596e-14,56.44826519963776A56.44826519963776,56.44826519963776,0,1,1,1.0369378094123596e-14,-56.44826519963776A56.44826519963776,56.44826519963776,0,1,1,-1.0369378094123596e-14,56.44826519963776Z" fill="none" stroke="#ccc"/></g><g transform="translate(480.0239362484395,226.31676271174052)" id="Gol"><path id="p_767.6447200564804" d="M-1.1077668961694819e-14,60.30402109630044A60.30402109630044,60.30402109630044,0,1,1,1.1077668961694819e-14,-60.30402109630044A60.30402109630044,60.30402109630044,0,1,1,-1.1077668961694819e-14,60.30402109630044Z" fill="none" stroke="#ccc"/></g><g transform="translate(597.1902225879091,226.31676271174052)" id="Amarok 2.0"><path id="p_879.5199022645794" d="M-1.010570890092905e-14,55.012916964929744A55.012916964929744,55.012916964929744,0,1,1,1.010570890092905e-14,-55.012916964929744A55.012916964929744,55.012916964929744,0,1,1,-1.010570890092905e-14,55.012916964929744Z" fill="none" stroke="#ccc"/></g><g transform="translate(543.5987775968682,319.9562673688484)" id="T-Cross"><path id="p_915.5834642539577" d="M-9.373768552034021e-15,51.02841928824107A51.02841928824107,51.02841928824107,0,1,1,9.373768552034021e-15,-51.02841928824107A51.02841928824107,51.02841928824107,0,1,1,-9.373768552034021e-15,51.02841928824107Z" fill="none" stroke="#ccc"/></g><g transform="translate(370.43636831404297,432.17679793254956)" id="Ranger 3.2"><path id="p_856.4662472712815" d="M-9.708953475294159e-15,52.853081024688976A52.853081024688976,52.853081024688976,0,1,1,9.708953475294159e-15,-52.853081024688976A52.853081024688976,52.853081024688976,0,1,1,-9.708953475294159e-15,52.853081024688976Z" fill="none" stroke="#ccc"/></g><g transform="translate(472.7611305132863,432.17679793254956)" id="Ka"><path id="p_953.5602613421507" d="M-8.748080632410261e-15,47.6223328963149A47.6223328963149,47.6223328963149,0,1,1,8.748080632410261e-15,-47.6223328963149A47.6223328963149,47.6223328963149,0,1,1,-8.748080632410261e-15,47.6223328963149Z" fill="none" stroke="#ccc"/></g><g transform="translate(426.4115737997944,511.1082393983121)" id="EcoSport"><path id="p_980.582026616759" d="M-7.72670325423084e-15,42.062213418652476A42.062213418652476,42.062213418652476,0,1,1,7.72670325423084e-15,-42.062213418652476A42.062213418652476,42.062213418652476,0,1,1,-7.72670325423084e-15,42.062213418652476Z" fill="none" stroke="#ccc"/></g><g transform="translate(415.4908048275389,118.20284291439398)" id="Sandero"><path id="p_586.8527680940286" d="M-9.581474967830351e-15,52.1591203520958A52.1591203520958,52.1591203520958,0,1,1,9.581474967830351e-15,-52.1591203520958A52.1591203520958,52.1591203520958,0,1,1,-9.581474967830351e-15,52.1591203520958Z" fill="none" stroke="#ccc"/></g><g transform="translate(322.3957899030165,63.42450254652144)" id="Onix"><path id="p_437.1286278969178" d="M-9.241491296409752e-15,50.30833544737981A50.30833544737981,50.30833544737981,0,1,1,9.241491296409752e-15,-50.30833544737981A50.30833544737981,50.30833544737981,0,1,1,-9.241491296409752e-15,50.30833544737981Z" fill="none" stroke="#ccc"/></g><g transform="translate(508.35695174414195,85.28917354998114)" id="Frontier 2.3"><path id="p_635.4652554510699" d="M-7.498352563602609e-15,40.81913015694677A40.81913015694677,40.81913015694677,0,1,1,7.498352563602609e-15,-40.81913015694677A40.81913015694677,40.81913015694677,0,1,1,-7.498352563602609e-15,40.81913015694677Z" fill="none" stroke="#ccc"/></g><g transform="translate(214.53871570942312,223.49631225158137)" id="Pickup"><path id="p_512.5171533684568" d="M-1.349844745121712e-14,73.48212540745226A73.48212540745226,73.48212540745226,0,1,1,1.349844745121712e-14,-73.48212540745226A73.48212540745226,73.48212540745226,0,1,1,-1.349844745121712e-14,73.48212540745226Z" fill="#e377c2" stroke="none"/></g><g transform="translate(348.167802872992,223.49631225158137)" id="Hatch"><path id="p_627.2630320459717" d="M-1.0029658326705407e-14,54.59891692139833A54.59891692139833,54.59891692139833,0,1,1,1.0029658326705407e-14,-54.59891692139833A54.59891692139833,54.59891692139833,0,1,1,-1.0029658326705407e-14,54.59891692139833Z" fill="#d62728" stroke="none"/></g><g transform="translate(298.90226887529894,327.12798614232355)" id="Sedan"><path id="p_681.6291719390208" d="M-1.0029658326705407e-14,54.59891692139833A54.59891692139833,54.59891692139833,0,1,1,1.0029658326705407e-14,-54.59891692139833A54.59891692139833,54.59891692139833,0,1,1,-1.0029658326705407e-14,54.59891692139833Z" fill="#ff7f0e" stroke="none"/></g><g transform="translate(480.0239362484395,226.31676271174052)" id="Hatch"><path id="p_765.795371778241" d="M-1.0737949194276631e-14,58.45467281806101A58.45467281806101,58.45467281806101,0,1,1,1.0737949194276631e-14,-58.45467281806101A58.45467281806101,58.45467281806101,0,1,1,-1.0737949194276631e-14,58.45467281806101Z" fill="#8c564b" stroke="none"/></g><g transform="translate(597.1902225879091,226.31676271174052)" id="Pickup"><path id="p_877.6705539863399" d="M-9.765989133510862e-15,53.16356868669032A53.16356868669032,53.16356868669032,0,1,1,9.765989133510862e-15,-53.16356868669032A53.16356868669032,53.16356868669032,0,1,1,-9.765989133510862e-15,53.16356868669032Z" fill="#1f77b4" stroke="none"/></g><g transform="translate(543.5987775968682,319.9562673688484)" id="SUV"><path id="p_913.7341159757183" d="M-9.034048784615835e-15,49.17907101000164A49.17907101000164,49.17907101000164,0,1,1,9.034048784615835e-15,-49.17907101000164A49.17907101000164,49.17907101000164,0,1,1,-9.034048784615835e-15,49.17907101000164Z" fill="#cccccc" stroke="none"/></g><g transform="translate(370.43636831404297,432.17679793254956)" id="Pickup"><path id="p_854.6168989930421" d="M-9.369233707875973e-15,51.00373274644955A51.00373274644955,51.00373274644955,0,1,1,9.369233707875973e-15,-51.00373274644955A51.00373274644955,51.00373274644955,0,1,1,-9.369233707875973e-15,51.00373274644955Z" fill="#17becf" stroke="none"/></g><g transform="translate(472.7611305132863,432.17679793254956)" id="Hatch"><path id="p_951.7109130639113" d="M-8.408360864992075e-15,45.772984618075476A45.772984618075476,45.772984618075476,0,1,1,8.408360864992075e-15,-45.772984618075476A45.772984618075476,45.772984618075476,0,1,1,-8.408360864992075e-15,45.772984618075476Z" fill="#7f7f7f" stroke="none"/></g><g transform="translate(426.4115737997944,511.1082393983121)" id="SUV"><path id="p_978.7326783385196" d="M-7.386983486812653e-15,40.21286514041305A40.21286514041305,40.21286514041305,0,1,1,7.386983486812653e-15,-40.21286514041305A40.21286514041305,40.21286514041305,0,1,1,-7.386983486812653e-15,40.21286514041305Z" fill="#2ca02c" stroke="none"/></g><g transform="translate(415.4908048275389,118.20284291439398)" id="Hatch"><path id="p_585.0034198157892" d="M-9.241755200412165e-15,50.30977207385637A50.30977207385637,50.30977207385637,0,1,1,9.241755200412165e-15,-50.30977207385637A50.30977207385637,50.30977207385637,0,1,1,-9.241755200412165e-15,50.30977207385637Z" fill="#cccccc" stroke="none"/></g><g transform="translate(322.3957899030165,63.42450254652144)" id="Hatch"><path id="p_435.27927961867834" d="M-8.901771528991563e-15,48.45898716914038A48.45898716914038,48.45898716914038,0,1,1,8.901771528991563e-15,-48.45898716914038A48.45898716914038,48.45898716914038,0,1,1,-8.901771528991563e-15,48.45898716914038Z" fill="#bcbd22" stroke="none"/></g><g transform="translate(508.35695174414195,85.28917354998114)" id="Pickup"><path id="p_633.6159071728304" d="M-7.15863279618442e-15,38.96978187870734A38.96978187870734,38.96978187870734,0,1,1,7.15863279618442e-15,-38.96978187870734A38.96978187870734,38.96978187870734,0,1,1,-7.15863279618442e-15,38.96978187870734Z" fill="#9467bd" stroke="none"/></g></g><g id="labels"><g transform="translate(214.53871570942312,223.49631225158137)"><text text-anchor="middle" dominant-baseline="text-before-edge" transform="translate(0,-5.5)"><tspan x="0" y="0" dy="0" style="font-family: Arial, sans-serif; font-size: 10px; fill: black; font-weight: bold;">Hilux 2.8</tspan></text></g><g transform="translate(348.167802872992,223.49631225158137)"><text text-anchor="middle" dominant-baseline="text-before-edge" transform="translate(0,-5.5)"><tspan x="0" y="0" dy="0" style="font-family: Arial, sans-serif; font-size: 10px; fill: black; font-weight: bold;">Etios</tspan></text></g><g transform="translate(298.90226887529894,327.12798614232355)"><text text-anchor="middle" dominant-baseline="text-before-edge" transform="translate(0,-5.5)"><tspan x="0" y="0" dy="0" style="font-family: Arial, sans-serif; font-size: 10px; fill: black; font-weight: bold;">Corolla</tspan></text></g><g transform="translate(480.0239362484395,226.31676271174052)"><text text-anchor="middle" dominant-baseline="text-before-edge" transform="translate(0,-5.5)"><tspan x="0" y="0" dy="0" style="font-family: Arial, sans-serif; font-size: 10px; fill: black; font-weight: bold;">Gol</tspan></text></g><g transform="translate(597.1902225879091,226.31676271174052)"><text text-anchor="middle" dominant-baseline="text-before-edge" transform="translate(0,-5.5)"><tspan x="0" y="0" dy="0" style="font-family: Arial, sans-serif; font-size: 10px; fill: black; font-weight: bold;">Amarok 2.0</tspan></text></g><g transform="translate(543.5987775968682,319.9562673688484)"><text text-anchor="middle" dominant-baseline="text-before-edge" transform="translate(0,-5.5)"><tspan x="0" y="0" dy="0" style="font-family: Arial, sans-serif; font-size: 10px; fill: black; font-weight: bold;">T-Cross</tspan></text></g><g transform="translate(370.43636831404297,432.17679793254956)"><text text-anchor="middle" dominant-baseline="text-before-edge" transform="translate(0,-5.5)"><tspan x="0" y="0" dy="0" style="font-family: Arial, sans-serif; font-size: 10px; fill: black; font-weight: bold;">Ranger 3.2</tspan></text></g><g transform="translate(472.7611305132863,432.17679793254956)"><text text-anchor="middle" dominant-baseline="text-before-edge" transform="translate(0,-5.5)"><tspan x="0" y="0" dy="0" style="font-family: Arial, sans-serif; font-size: 10px; fill: black; font-weight: bold;">Ka</tspan></text></g><g transform="translate(426.4115737997944,511.1082393983121)"><text text-anchor="middle" dominant-baseline="text-before-edge" transform="translate(0,-5.5)"><tspan x="0" y="0" dy="0" style="font-family: Arial, sans-serif; font-size: 10px; fill: black; font-weight: bold;">EcoSport</tspan></text></g><g transform="translate(415.4908048275389,118.20284291439398)"><text text-anchor="middle" dominant-baseline="text-before-edge" transform="translate(0,-5.5)"><tspan x="0" y="0" dy="0" style="font-family: Arial, sans-serif; font-size: 10px; fill: black; font-weight: bold;">Sandero</tspan></text></g><g transform="translate(322.3957899030165,63.42450254652144)"><text text-anchor="middle" dominant-baseline="text-before-edge" transform="translate(0,-5.5)"><tspan x="0" y="0" dy="0" style="font-family: Arial, sans-serif; font-size: 10px; fill: black; font-weight: bold;">Onix</tspan></text></g><g transform="translate(508.35695174414195,85.28917354998114)"><text text-anchor="middle" dominant-baseline="text-before-edge" transform="translate(0,-5.5)"><tspan x="0" y="0" dy="0" style="font-family: Arial, sans-serif; font-size: 10px; fill: black; font-weight: bold;">Frontier 2.3</tspan></text></g></g></g></svg>