<svg xmlns="http://www.w3.org/2000/svg" width="1005" height="600"><rect width="1005" height="600" x="0" y="0" fill="#FFFFFF" id="background"/><g id="viz" transform="translate(20,20)"><g id="lines" fill="none"><path d="M0,408.33333333333326L153,466.66666666666674L306,459.48717948717933L459,50.909090909090914L612,0.02905000605208459L765,332.20338983050846" stroke="rgb(42, 222, 186)" stroke-width="10" stroke-opacity="0.7"/><path d="M0,291.66666666666663L153,373.3333333333335L306,272.8205128205128L459,33.35423197492163L612,0.0010500002187500456L765,408.13559322033893" stroke="rgb(208, 230, 55)" stroke-width="10" stroke-opacity="0.7"/><path d="M0,466.66666666666663L153,520.0000000000001L306,502.56410256410254L459,103.57366771159874L612,0.1457166970243119L765,104.40677966101696" stroke="rgb(90, 251, 119)" stroke-width="10" stroke-opacity="0.7"/><path d="M0,501.6666666666667L153,493.3333333333333L306,473.8461538461539L459,138.6833855799373L612,0.5832167881701642L765,66.4406779661017" stroke="rgb(37, 196, 218)" stroke-width="10" stroke-opacity="0.7"/><path d="M0,560L153,560L306,560L459,296.6771159874608L612,58.33322881942267L765,5.694915254237288" stroke="rgb(35, 23, 27)" stroke-width="10" stroke-opacity="0.7"/><path d="M0,326.66666666666663L153,359.99999999999994L306,215.38461538461536L459,419.5611285266458L612,31.499889895810394L765,37.96610169491525" stroke="rgb(250, 102, 25)" stroke-width="10" stroke-opacity="0.7"/><path d="M0,408.33333333333326L153,440.00000000000017L306,358.97435897435895L459,524.8902821316615L612,75.83323246525676L765,18.983050847457626" stroke="rgb(224, 66, 18)" stroke-width="10" stroke-opacity="0.7"/><path d="M0,489.9999999999999L153,466.66666666666674L306,473.8461538461539L459,560L612,560L765,9.491525423728813" stroke="rgb(190, 36, 9)" stroke-width="10" stroke-opacity="0.7"/><path d="M0,291.66666666666663L153,333.33333333333337L306,387.69230769230757L459,68.46394984326018L612,0.1457166970243119L765,47.45762711864407" stroke="rgb(144, 12, 0)" stroke-width="10" stroke-opacity="0.7"/><path d="M0,268.33333333333326L153,306.6666666666667L306,416.4102564102564L459,61.442006269592476L612,0.05821667879514141L765,37.96610169491525" stroke="rgb(158, 16, 1)" stroke-width="10" stroke-opacity="0.7"/><path d="M0,349.99999999999994L153,400.00000000000006L306,287.1794871794872L459,33.35423197492163L612,1.1665502430313006L765,9.491525423728813" stroke="rgb(73, 92, 225)" stroke-width="10" stroke-opacity="0.7"/><path d="M0,466.66666666666663L153,440.00000000000017L306,502.56410256410254L459,40.376175548589345L612,1.458216970461869L765,13.288135593220339" stroke="rgb(240, 205, 44)" stroke-width="10" stroke-opacity="0.7"/><path d="M0,524.9999999999999L153,466.66666666666674L306,287.1794871794872L459,86.01880877742947L612,15.749886614559712L765,0" stroke="rgb(255, 175, 37)" stroke-width="10" stroke-opacity="0.7"/><path d="M0,0L153,0L306,0L459,1.7554858934169277L612,0L765,560" stroke="rgb(169, 246, 71)" stroke-width="10" stroke-opacity="0.7"/><path d="M0,174.99999999999997L153,173.33333333333334L306,143.5897435897436L459,50.909090909090914L612,0.07455001553125323L765,85.42372881355932" stroke="rgb(128, 253, 92)" stroke-width="10" stroke-opacity="0.7"/><path d="M0,349.99999999999994L153,359.99999999999994L306,387.69230769230757L459,75.48589341692791L612,0.1457166970243119L765,43.66101694915255" stroke="rgb(71, 56, 158)" stroke-width="10" stroke-opacity="0.7"/><path d="M0,233.33333333333331L153,226.66666666666674L306,287.1794871794872L459,0L612,0.06988334789236414L765,66.4406779661017" stroke="rgb(44, 164, 242)" stroke-width="10" stroke-opacity="0.7"/><path d="M0,536.6666666666665L153,533.3333333333335L306,531.2820512820512L459,61.442006269592476L612,1.749883697892437L765,18.983050847457626" stroke="rgb(60, 241, 151)" stroke-width="10" stroke-opacity="0.7"/><path d="M0,431.6666666666665L153,480.00000000000006L306,473.8461538461539L459,86.01880877742947L612,0.1748833697673687L765,275.2542372881356" stroke="rgb(255, 139, 31)" stroke-width="10" stroke-opacity="0.7"/><path d="M0,478.33333333333326L153,506.66666666666686L306,488.20512820512823L459,103.57366771159874L612,0.5832167881701642L765,123.38983050847457" stroke="rgb(59, 129, 248)" stroke-width="10" stroke-opacity="0.7"/></g><g><g transform="translate(0,0)" fill="none" font-size="10" font-family="sans-serif" text-anchor="end"><path class="domain" stroke="currentColor" d="M-6,0.5H0.5V560.5H-6"/><g class="tick" opacity="1" transform="translate(0,0.5)"><line stroke="currentColor" x2="-6"/><text fill="currentColor" x="-9" dy="0.32em">5.0</text></g><g class="tick" opacity="1" transform="translate(0,58.83333333333333)"><line stroke="currentColor" x2="-6"/><text fill="currentColor" x="-9" dy="0.32em">5.5</text></g><g class="tick" opacity="1" transform="translate(0,117.16666666666666)"><line stroke="currentColor" x2="-6"/><text fill="currentColor" x="-9" dy="0.32em">6.0</text></g><g class="tick" opacity="1" transform="translate(0,175.49999999999997)"><line stroke="currentColor" x2="-6"/><text fill="currentColor" x="-9" dy="0.32em">6.5</text></g><g class="tick" opacity="1" transform="translate(0,233.83333333333331)"><line stroke="currentColor" x2="-6"/><text fill="currentColor" x="-9" dy="0.32em">7.0</text></g><g class="tick" opacity="1" transform="translate(0,292.16666666666663)"><line stroke="currentColor" x2="-6"/><text fill="currentColor" x="-9" dy="0.32em">7.5</text></g><g class="tick" opacity="1" transform="translate(0,350.49999999999994)"><line stroke="currentColor" x2="-6"/><text fill="currentColor" x="-9" dy="0.32em">8.0</text></g><g class="tick" opacity="1" transform="translate(0,408.83333333333326)"><line stroke="currentColor" x2="-6"/><text fill="currentColor" x="-9" dy="0.32em">8.5</text></g><g class="tick" opacity="1" transform="translate(0,467.16666666666663)"><line stroke="currentColor" x2="-6"/><text fill="currentColor" x="-9" dy="0.32em">9.0</text></g><g class="tick" opacity="1" transform="translate(0,525.4999999999999)"><line stroke="currentColor" x2="-6"/><text fill="currentColor" x="-9" dy="0.32em">9.5</text></g><text y="-6" text-anchor="start" fill="currentColor">security_score</text></g><g transform="translate(153,0)" fill="none" font-size="10" font-family="sans-serif" text-anchor="end"><path class="domain" stroke="currentColor" d="M-6,0.5H0.5V560.5H-6"/><g class="tick" opacity="1" transform="translate(0,0.5)"><line stroke="currentColor" x2="-6"/><text fill="currentColor" x="-9" dy="0.32em">5.5</text></g><g class="tick" opacity="1" transform="translate(0,67.16666666666669)"><line stroke="currentColor" x2="-6"/><text fill="currentColor" x="-9" dy="0.32em">6.0</text></g><g class="tick" opacity="1" transform="translate(0,133.83333333333337)"><line stroke="currentColor" x2="-6"/><text fill="currentColor" x="-9" dy="0.32em">6.5</text></g><g class="tick" opacity="1" transform="translate(0,200.50000000000003)"><line stroke="currentColor" x2="-6"/><text fill="currentColor" x="-9" dy="0.32em">7.0</text></g><g class="tick" opacity="1" transform="translate(0,267.16666666666674)"><line stroke="currentColor" x2="-6"/><text fill="currentColor" x="-9" dy="0.32em">7.5</text></g><g class="tick" opacity="1" transform="translate(0,333.83333333333337)"><line stroke="currentColor" x2="-6"/><text fill="currentColor" x="-9" dy="0.32em">8.0</text></g><g class="tick" opacity="1" transform="translate(0,400.50000000000006)"><line stroke="currentColor" x2="-6"/><text fill="currentColor" x="-9" dy="0.32em">8.5</text></g><g class="tick" opacity="1" transform="translate(0,467.16666666666674)"><line stroke="currentColor" x2="-6"/><text fill="currentColor" x="-9" dy="0.32em">9.0</text></g><g class="tick" opacity="1" transform="translate(0,533.8333333333335)"><line stroke="currentColor" x2="-6"/><text fill="currentColor" x="-9" dy="0.32em">9.5</text></g><text y="-6" text-anchor="start" fill="currentColor">stability_score</text></g><g transform="translate(306,0)" fill="none" font-size="10" font-family="sans-serif" text-anchor="end"><path class="domain" stroke="currentColor" d="M-6,0.5H0.5V560.5H-6"/><g class="tick" opacity="1" transform="translate(0,0.5)"><line stroke="currentColor" x2="-6"/><text fill="currentColor" x="-9" dy="0.32em">6.0</text></g><g class="tick" opacity="1" transform="translate(0,72.2948717948718)"><line stroke="currentColor" x2="-6"/><text fill="currentColor" x="-9" dy="0.32em">6.5</text></g><g class="tick" opacity="1" transform="translate(0,144.0897435897436)"><line stroke="currentColor" x2="-6"/><text fill="currentColor" x="-9" dy="0.32em">7.0</text></g><g class="tick" opacity="1" transform="translate(0,215.88461538461536)"><line stroke="currentColor" x2="-6"/><text fill="currentColor" x="-9" dy="0.32em">7.5</text></g><g class="tick" opacity="1" transform="translate(0,287.6794871794872)"><line stroke="currentColor" x2="-6"/><text fill="currentColor" x="-9" dy="0.32em">8.0</text></g><g class="tick" opacity="1" transform="translate(0,359.47435897435895)"><line stroke="currentColor" x2="-6"/><text fill="currentColor" x="-9" dy="0.32em">8.5</text></g><g class="tick" opacity="1" transform="translate(0,431.2692307692307)"><line stroke="currentColor" x2="-6"/><text fill="currentColor" x="-9" dy="0.32em">9.0</text></g><g class="tick" opacity="1" transform="translate(0,503.06410256410254)"><line stroke="currentColor" x2="-6"/><text fill="currentColor" x="-9" dy="0.32em">9.5</text></g><text y="-6" text-anchor="start" fill="currentColor">scalability_score</text></g><g transform="translate(459,0)" fill="none" font-size="10" font-family="sans-serif" text-anchor="end"><path class="domain" stroke="currentColor" d="M-6,0.5H0.5V560.5H-6"/><g class="tick" opacity="1" transform="translate(0,68.96394984326018)"><line stroke="currentColor" x2="-6"/><text fill="currentColor" x="-9" dy="0.32em">20</text></g><g class="tick" opacity="1" transform="translate(0,139.1833855799373)"><line stroke="currentColor" x2="-6"/><text fill="currentColor" x="-9" dy="0.32em">40</text></g><g class="tick" opacity="1" transform="translate(0,209.40282131661442)"><line stroke="currentColor" x2="-6"/><text fill="currentColor" x="-9" dy="0.32em">60</text></g><g class="tick" opacity="1" transform="translate(0,279.62225705329155)"><line stroke="currentColor" x2="-6"/><text fill="currentColor" x="-9" dy="0.32em">80</text></g><g class="tick" opacity="1" transform="translate(0,349.84169278996865)"><line stroke="currentColor" x2="-6"/><text fill="currentColor" x="-9" dy="0.32em">100</text></g><g class="tick" opacity="1" transform="translate(0,420.0611285266458)"><line stroke="currentColor" x2="-6"/><text fill="currentColor" x="-9" dy="0.32em">120</text></g><g class="tick" opacity="1" transform="translate(0,490.2805642633229)"><line stroke="currentColor" x2="-6"/><text fill="currentColor" x="-9" dy="0.32em">140</text></g><g class="tick" opacity="1" transform="translate(0,560.5)"><line stroke="currentColor" x2="-6"/><text fill="currentColor" x="-9" dy="0.32em">160</text></g><text y="-6" text-anchor="start" fill="currentColor">energy_consumption_mAh</text></g><g transform="translate(612,0)" fill="none" font-size="10" font-family="sans-serif" text-anchor="end"><path class="domain" stroke="currentColor" d="M-6,0.5H0.5V560.5H-6"/><g class="tick" opacity="1" transform="translate(0,58.83322881942267)"><line stroke="currentColor" x2="-6"/><text fill="currentColor" x="-9" dy="0.32em">100,000</text></g><g class="tick" opacity="1" transform="translate(0,117.1665743055363)"><line stroke="currentColor" x2="-6"/><text fill="currentColor" x="-9" dy="0.32em">200,000</text></g><g class="tick" opacity="1" transform="translate(0,175.49991979164992)"><line stroke="currentColor" x2="-6"/><text fill="currentColor" x="-9" dy="0.32em">300,000</text></g><g class="tick" opacity="1" transform="translate(0,233.8332652777636)"><line stroke="currentColor" x2="-6"/><text fill="currentColor" x="-9" dy="0.32em">400,000</text></g><g class="tick" opacity="1" transform="translate(0,292.1666107638772)"><line stroke="currentColor" x2="-6"/><text fill="currentColor" x="-9" dy="0.32em">500,000</text></g><g class="tick" opacity="1" transform="translate(0,350.49995624999093)"><line stroke="currentColor" x2="-6"/><text fill="currentColor" x="-9" dy="0.32em">600,000</text></g><g class="tick" opacity="1" transform="translate(0,408.83330173610454)"><line stroke="currentColor" x2="-6"/><text fill="currentColor" x="-9" dy="0.32em">700,000</text></g><g class="tick" opacity="1" transform="translate(0,467.16664722221816)"><line stroke="currentColor" x2="-6"/><text fill="currentColor" x="-9" dy="0.32em">800,000</text></g><g class="tick" opacity="1" transform="translate(0,525.4999927083318)"><line stroke="currentColor" x2="-6"/><text fill="currentColor" x="-9" dy="0.32em">900,000</text></g><text y="-6" text-anchor="start" fill="currentColor">throughput_kbps</text></g><g transform="translate(765,0)" fill="none" font-size="10" font-family="sans-serif" text-anchor="end"><path class="domain" stroke="currentColor" d="M-6,0.5H0.5V560.5H-6"/><g class="tick" opacity="1" transform="translate(0,28.974576271186443)"><line stroke="currentColor" x2="-6"/><text fill="currentColor" x="-9" dy="0.32em">20</text></g><g class="tick" opacity="1" transform="translate(0,66.9406779661017)"><line stroke="currentColor" x2="-6"/><text fill="currentColor" x="-9" dy="0.32em">40</text></g><g class="tick" opacity="1" transform="translate(0,104.90677966101696)"><line stroke="currentColor" x2="-6"/><text fill="currentColor" x="-9" dy="0.32em">60</text></g><g class="tick" opacity="1" transform="translate(0,142.8728813559322)"><line stroke="currentColor" x2="-6"/><text fill="currentColor" x="-9" dy="0.32em">80</text></g><g class="tick" opacity="1" transform="translate(0,180.83898305084745)"><line stroke="currentColor" x2="-6"/><text fill="currentColor" x="-9" dy="0.32em">100</text></g><g class="tick" opacity="1" transform="translate(0,218.8050847457627)"><line stroke="currentColor" x2="-6"/><text fill="currentColor" x="-9" dy="0.32em">120</text></g><g class="tick" opacity="1" transform="translate(0,256.771186440678)"><line stroke="currentColor" x2="-6"/><text fill="currentColor" x="-9" dy="0.32em">140</text></g><g class="tick" opacity="1" transform="translate(0,294.73728813559325)"><line stroke="currentColor" x2="-6"/><text fill="currentColor" x="-9" dy="0.32em">160</text></g><g class="tick" opacity="1" transform="translate(0,332.70338983050846)"><line stroke="currentColor" x2="-6"/><text fill="currentColor" x="-9" dy="0.32em">180</text></g><g class="tick" opacity="1" transform="translate(0,370.6694915254237)"><line stroke="currentColor" x2="-6"/><text fill="currentColor" x="-9" dy="0.32em">200</text></g><g class="tick" opacity="1" transform="translate(0,408.63559322033893)"><line stroke="currentColor" x2="-6"/><text fill="currentColor" x="-9" dy="0.32em">220</text></g><g class="tick" opacity="1" transform="translate(0,446.60169491525426)"><line stroke="currentColor" x2="-6"/><text fill="currentColor" x="-9" dy="0.32em">240</text></g><g class="tick" opacity="1" transform="translate(0,484.5677966101695)"><line stroke="currentColor" x2="-6"/><text fill="currentColor" x="-9" dy="0.32em">260</text></g><g class="tick" opacity="1" transform="translate(0,522.5338983050847)"><line stroke="currentColor" x2="-6"/><text fill="currentColor" x="-9" dy="0.32em">280</text></g><g class="tick" opacity="1" transform="translate(0,560.5)"><line stroke="currentColor" x2="-6"/><text fill="currentColor" x="-9" dy="0.32em">300</text></g><text y="-6" text-anchor="start" fill="currentColor">latency_ms_avg</text></g></g></g><g id="legend" transform="translate(805,20)"><g transform="translate(5,0)"><g class="legendColor" transform="translate(0,0)"><g class="legendCells" transform="translate(0,16)"><g class="cell" transform="translate(0, 0)"><rect class="swatch" height="15" width="15" style="fill: rgb(35, 23, 27);"/><text class="label" transform="translate( 20, 12.5)" font-family="&quot;Arial&quot;, sans-serif" font-size="10px"><tspan x="0" dy="0em">5G-IoT</tspan></text></g><g class="cell" transform="translate(0, 21)"><rect class="swatch" height="15" width="15" style="fill: rgb(71, 56, 158);"/><text class="label" transform="translate( 20, 12.5)" font-family="&quot;Arial&quot;, sans-serif" font-size="10px"><tspan x="0" dy="0em">6LoWPAN</tspan></text></g><g class="cell" transform="translate(0, 42)"><rect class="swatch" height="15" width="15" style="fill: rgb(73, 92, 225);"/><text class="label" transform="translate( 20, 12.5)" font-family="&quot;Arial&quot;, sans-serif" font-size="10px"><tspan x="0" dy="0em">Bluetooth 5</tspan></text></g><g class="cell" transform="translate(0, 63)"><rect class="swatch" height="15" width="15" style="fill: rgb(59, 129, 248);"/><text class="label" transform="translate( 20, 12.5)" font-family="&quot;Arial&quot;, sans-serif" font-size="10px"><tspan x="0" dy="0em">DECT-2020 NR</tspan></text></g><g class="cell" transform="translate(0, 84)"><rect class="swatch" height="15" width="15" style="fill: rgb(44, 164, 242);"/><text class="label" transform="translate( 20, 12.5)" font-family="&quot;Arial&quot;, sans-serif" font-size="10px"><tspan x="0" dy="0em">EnOcean</tspan></text></g><g class="cell" transform="translate(0, 105)"><rect class="swatch" height="15" width="15" style="fill: rgb(37, 196, 218);"/><text class="label" transform="translate( 20, 12.5)" font-family="&quot;Arial&quot;, sans-serif" font-size="10px"><tspan x="0" dy="0em">LTE-M</tspan></text></g><g class="cell" transform="translate(0, 126)"><rect class="swatch" height="15" width="15" style="fill: rgb(42, 222, 186);"/><text class="label" transform="translate( 20, 12.5)" font-family="&quot;Arial&quot;, sans-serif" font-size="10px"><tspan x="0" dy="0em">LoRaWAN</tspan></text></g><g class="cell" transform="translate(0, 147)"><rect class="swatch" height="15" width="15" style="fill: rgb(60, 241, 151);"/><text class="label" transform="translate( 20, 12.5)" font-family="&quot;Arial&quot;, sans-serif" font-size="10px"><tspan x="0" dy="0em">Matter</tspan></text></g><g class="cell" transform="translate(0, 168)"><rect class="swatch" height="15" width="15" style="fill: rgb(90, 251, 119);"/><text class="label" transform="translate( 20, 12.5)" font-family="&quot;Arial&quot;, sans-serif" font-size="10px"><tspan x="0" dy="0em">NB-IoT</tspan></text></g><g class="cell" transform="translate(0, 189)"><rect class="swatch" height="15" width="15" style="fill: rgb(128, 253, 92);"/><text class="label" transform="translate( 20, 12.5)" font-family="&quot;Arial&quot;, sans-serif" font-size="10px"><tspan x="0" dy="0em">RFID Active</tspan></text></g><g class="cell" transform="translate(0, 210)"><rect class="swatch" height="15" width="15" style="fill: rgb(169, 246, 71);"/><text class="label" transform="translate( 20, 12.5)" font-family="&quot;Arial&quot;, sans-serif" font-size="10px"><tspan x="0" dy="0em">RFID Passive</tspan></text></g><g class="cell" transform="translate(0, 231)"><rect class="swatch" height="15" width="15" style="fill: rgb(208, 230, 55);"/><text class="label" transform="translate( 20, 12.5)" font-family="&quot;Arial&quot;, sans-serif" font-size="10px"><tspan x="0" dy="0em">Sigfox</tspan></text></g><g class="cell" transform="translate(0, 252)"><rect class="swatch" height="15" width="15" style="fill: rgb(240, 205, 44);"/><text class="label" transform="translate( 20, 12.5)" font-family="&quot;Arial&quot;, sans-serif" font-size="10px"><tspan x="0" dy="0em">Thread</tspan></text></g><g class="cell" transform="translate(0, 273)"><rect class="swatch" height="15" width="15" style="fill: rgb(255, 175, 37);"/><text class="label" transform="translate( 20, 12.5)" font-family="&quot;Arial&quot;, sans-serif" font-size="10px"><tspan x="0" dy="0em">UWB</tspan></text></g><g class="cell" transform="translate(0, 294)"><rect class="swatch" height="15" width="15" style="fill: rgb(255, 139, 31);"/><text class="label" transform="translate( 20, 12.5)" font-family="&quot;Arial&quot;, sans-serif" font-size="10px"><tspan x="0" dy="0em">Wi-SUN</tspan></text></g><g class="cell" transform="translate(0, 315)"><rect class="swatch" height="15" width="15" style="fill: rgb(250, 102, 25);"/><text class="label" transform="translate( 20, 12.5)" font-family="&quot;Arial&quot;, sans-serif" font-size="10px"><tspan x="0" dy="0em">WiFi 4</tspan></text></g><g class="cell" transform="translate(0, 336)"><rect class="swatch" height="15" width="15" style="fill: rgb(224, 66, 18);"/><text class="label" transform="translate( 20, 12.5)" font-family="&quot;Arial&quot;, sans-serif" font-size="10px"><tspan x="0" dy="0em">WiFi 5</tspan></text></g><g class="cell" transform="translate(0, 357)"><rect class="swatch" height="15" width="15" style="fill: rgb(190, 36, 9);"/><text class="label" transform="translate( 20, 12.5)" font-family="&quot;Arial&quot;, sans-serif" font-size="10px"><tspan x="0" dy="0em">WiFi 6</tspan></text></g><g class="cell" transform="translate(0, 378)"><rect class="swatch" height="15" width="15" style="fill: rgb(158, 16, 1);"/><text class="label" transform="translate( 20, 12.5)" font-family="&quot;Arial&quot;, sans-serif" font-size="10px"><tspan x="0" dy="0em">Z-Wave</tspan></text></g><g class="cell" transform="translate(0, 399)"><rect class="swatch" height="15" width="15" style="fill: rgb(144, 12, 0);"/><text class="label" transform="translate( 20, 12.5)" font-family="&quot;Arial&quot;, sans-serif" font-size="10px"><tspan x="0" dy="0em">Zigbee</tspan></text></g></g><text class="legendTitle" font-family="&quot;Arial&quot;, sans-serif" font-size="12px" font-weight="bold"><tspan x="0" dy="0em">protocol</tspan></text></g></g></g></svg>